<svg height="600" version="1.1" width="800" xmlns="http://www.w3.org/2000/svg" preserveAspectRatio="xMidYMid meet" viewBox="0 0 600 442" xmlns:xlink="http://www.w3.org/1999/xlink"><desc>Created with Snap</desc><defs/><g id="root" contentwidth="420" contentheight="200.61787072243348">
          <rect class="background" height="2000%" width="2000%" y="-1000%" x="-1000%" style="" fill="#f4fbfd"/>
          <g class="content" id="content" transform="matrix(1.9962,0,0,1.9962,313.1749,255.9335)">
            <g class="icon" style="mask: url(#mask);">
            <svg height="100.5" version="1.1" width="100.5" xmlns="http://www.w3.org/2000/svg" x="-111.8" y="-67.75"><desc>Created with Snap</desc><defs/><svg xmlns="http://www.w3.org/2000/svg" class="icon" version="1.1" viewBox="0 0 256 256">
<g stroke-linecap="butt" stroke-width="2.00">
<path d="   M 238.68 41.03   Q 233.18 62.31 215.91 77.11   A 0.91 0.90 53.0 0 0 215.75 78.31   Q 219.74 84.15 223.05 88.98   Q 232.17 102.30 237.88 118.86   Q 238.66 121.09 237.98 122.92   L 234.69 131.84   Q 234.08 133.49 232.22 133.51   Q 219.84 133.67 207.81 127.94   Q 205.97 127.06 203.29 124.75" stroke="#7e9aba" stroke-opacity="0.996" vector-effect="non-scaling-stroke"/>
<path d="   M 203.29 124.75   L 199.00 120.29" stroke="#326993" stroke-opacity="0.992" vector-effect="non-scaling-stroke"/>
<path d="   M 192.92 102.94   Q 192.84 101.99 191.91 102.25   A 0.85 0.72 87.6 0 0 191.37 102.94   Q 190.63 108.55 192.00 114.04" stroke="#5f86a8" stroke-opacity="0.996" vector-effect="non-scaling-stroke"/>
<path d="   M 192.00 114.04   Q 194.54 121.85 200.69 128.07   A 0.48 0.48 57.4 0 1 200.52 128.86   Q 186.97 134.04 177.63 143.63   Q 161.58 160.13 163.50 183.50   Q 164.27 192.86 168.79 208.25" stroke="#7e9aba" stroke-opacity="0.996" vector-effect="non-scaling-stroke"/>
<path d="   M 168.79 208.25   L 168.75 208.94   A 0.55 0.54 2.2 0 1 168.20 209.44   Q 162.52 209.44 161.00 209.50   Q 157.78 209.63 155.10 208.87" stroke="#5f86a8" stroke-opacity="0.996" vector-effect="non-scaling-stroke"/>
<path d="   M 147.74 187.66   Q 142.59 172.23 127.31 164.19   Q 121.57 161.16 118.01 160.40" stroke="#3d6f9d" stroke-opacity="0.992" vector-effect="non-scaling-stroke"/>
<path d="   M 85.20 159.33   Q 67.02 164.35 53.39 176.67   Q 44.74 184.49 41.59 190.17   Q 37.05 198.36 38.49 208.67   A 0.55 0.51 -5.6 0 1 37.98 209.25   L 25.39 210.05" stroke="#7e9aba" stroke-opacity="0.996" vector-effect="non-scaling-stroke"/>
<path d="   M 192.71 113.75   Q 192.30 113.75 192.00 114.04" stroke="#d6e6e6" stroke-opacity="0.992" vector-effect="non-scaling-stroke"/>
<path d="   M 169.46 208.25   L 168.79 208.25" stroke="#d6e6e6" stroke-opacity="0.992" vector-effect="non-scaling-stroke"/>
<path d="   M 67.52 71.82   L 63.47 71.65" stroke="#7d835c" vector-effect="non-scaling-stroke"/>
<path d="   M 156.54 85.75   L 151.44 89.65" stroke="#7f7f54" vector-effect="non-scaling-stroke"/>
<path d="   M 123.60 73.40   Q 126.35 76.71 125.00 80.46" stroke="#807e4d" vector-effect="non-scaling-stroke"/>
<path d="   M 109.50 79.96   Q 111.80 76.64 113.35 72.31" stroke="#7e8155" vector-effect="non-scaling-stroke"/>
<path d="   M 204.62 67.98   Q 204.29 72.03 202.55 75.37   A 0.88 0.86 12.2 0 1 201.81 75.83   Q 188.47 76.39 176.71 82.67" stroke="#7696ba" stroke-opacity="0.988" vector-effect="non-scaling-stroke"/>
<path d="   M 32.94 133.50   Q 32.08 134.62 32.50 137.75   Q 34.34 151.38 22.94 160.19   Q 21.40 161.38 14.14 165.20" stroke="#7c9bc2" stroke-opacity="0.996" vector-effect="non-scaling-stroke"/>
<path d="   M 220.04 157.82   Q 225.85 164.59 224.90 173.49   Q 224.45 177.81 221.56 181.06   Q 212.09 191.75 198.54 185.34" stroke="#f3d778" vector-effect="non-scaling-stroke"/>
<path d="   M 123.34 166.13   L 123.00 174.77   A 0.73 0.72 15.8 0 1 121.92 175.36   Q 98.83 162.96 75.96 176.00" stroke="#7598bb" stroke-opacity="0.988" vector-effect="non-scaling-stroke"/>
<path d="   M 135.46 174.25   L 135.00 174.54" stroke="#8ab5c0" stroke-opacity="0.988" vector-effect="non-scaling-stroke"/>
<path d="   M 135.00 174.54   L 128.15 169.26" stroke="#306d9b" stroke-opacity="0.992" vector-effect="non-scaling-stroke"/>
<path d="   M 135.00 174.54   Q 138.14 177.45 139.89 181.18   Q 141.25 184.10 141.32 189.06   Q 141.45 198.88 141.27 208.03   Q 141.23 210.08 139.19 209.87   Q 133.37 209.28 128.13 210.50" stroke="#5d8ab0" stroke-opacity="0.996" vector-effect="non-scaling-stroke"/>
<path d="   M 69.65 169.83   Q 73.70 182.47 77.31 190.19   Q 83.24 202.83 85.63 209.10" stroke="#7696ba" stroke-opacity="0.988" vector-effect="non-scaling-stroke"/>
<path d="   M 85.63 209.10   Q 79.57 209.22 76.44 209.69   Q 72.77 210.23 71.29 207.25" stroke="#5e87af" stroke-opacity="0.996" vector-effect="non-scaling-stroke"/>
<path d="   M 71.29 207.25   Q 69.72 203.62 67.25 200.53" stroke="#316a9b" stroke-opacity="0.992" vector-effect="non-scaling-stroke"/>
<path d="   M 71.29 207.25   Q 71.32 207.67 71.00 207.79" stroke="#8ab5c0" stroke-opacity="0.988" vector-effect="non-scaling-stroke"/>
<path d="   M 86.29 208.25   Q 86.35 209.12 85.63 209.10" stroke="#d0e1df" stroke-opacity="0.984" vector-effect="non-scaling-stroke"/>
<path d="   M 206.48 213.27   L 206.21 219.00" stroke="#5c82ae" stroke-opacity="0.996" vector-effect="non-scaling-stroke"/>
<path d="   M 206.21 219.00   L 205.90 219.99   A 0.79 0.63 6.8 0 1 205.18 220.44   Q 118.68 220.19 32.19 220.39   Q 17.74 220.42 3.29 220.25" stroke="#2f6599" stroke-opacity="0.992" vector-effect="non-scaling-stroke"/>
<path d="   M 206.70 221.61   Q 205.93 220.07 206.21 219.00" stroke="#8ab5c0" stroke-opacity="0.988" vector-effect="non-scaling-stroke"/>
<path d="   M 218.50 96.79   Q 218.02 94.81 216.34 94.64   Q 215.05 94.51 214.06 95.72   Q 211.72 98.59 215.13 100.92" stroke="#7795b3" stroke-opacity="0.988" vector-effect="non-scaling-stroke"/>
<path d="   M 155.30 213.62   Q 157.82 213.87 160.88 213.72   Q 164.08 213.55 160.87 213.50   Q 158.04 213.46 155.31 213.55   Q 154.77 213.56 155.30 213.62" stroke="#053782" vector-effect="non-scaling-stroke"/>
</g>
<path d="   M 238.68 41.03   Q 233.18 62.31 215.91 77.11   A 0.91 0.90 53.0 0 0 215.75 78.31   Q 219.74 84.15 223.05 88.98   Q 232.17 102.30 237.88 118.86   Q 238.66 121.09 237.98 122.92   L 234.69 131.84   Q 234.08 133.49 232.22 133.51   Q 219.84 133.67 207.81 127.94   Q 205.97 127.06 203.29 124.75   L 199.00 120.29   Q 193.66 112.59 192.92 102.94   Q 192.84 101.99 191.91 102.25   A 0.85 0.72 87.6 0 0 191.37 102.94   Q 190.63 108.55 192.00 114.04   Q 194.54 121.85 200.69 128.07   A 0.48 0.48 57.4 0 1 200.52 128.86   Q 186.97 134.04 177.63 143.63   Q 161.58 160.13 163.50 183.50   Q 164.27 192.86 168.79 208.25   L 168.75 208.94   A 0.55 0.54 2.2 0 1 168.20 209.44   Q 162.52 209.44 161.00 209.50   Q 157.78 209.63 155.10 208.87   L 147.74 187.66   Q 142.59 172.23 127.31 164.19   Q 121.57 161.16 118.01 160.40   Q 109.22 157.26 99.00 157.25   Q 91.52 157.24 85.20 159.33   Q 67.02 164.35 53.39 176.67   Q 44.74 184.49 41.59 190.17   Q 37.05 198.36 38.49 208.67   A 0.55 0.51 -5.6 0 1 37.98 209.25   L 25.39 210.05   Q 24.17 199.97 26.00 191.50   Q 28.04 182.02 34.79 175.04   Q 38.29 171.41 41.67 167.67   Q 43.57 165.56 43.82 162.73   Q 44.32 157.19 42.00 148.50   Q 40.44 142.65 38.24 136.98   Q 37.45 134.94 38.47 133.01   Q 40.54 129.07 43.92 125.67   Q 51.78 117.74 61.84 112.87   Q 67.11 110.32 72.80 109.60   Q 76.12 109.17 83.06 109.81   Q 88.19 110.29 93.34 110.64   Q 93.47 110.65 104.64 111.62   Q 110.55 112.14 116.50 112.07   Q 135.30 111.85 151.54 103.25   Q 154.70 101.58 161.08 97.24   Q 165.74 94.07 170.48 90.99   Q 180.59 84.43 192.36 81.76   Q 198.22 80.44 205.06 80.79   A 1.66 1.65 -86.5 0 0 206.80 79.24   Q 207.30 71.98 210.47 64.63   Q 218.51 45.98 238.68 41.03   Z   M 215.13 100.92   Q 216.92 102.69 218.31 100.81   Q 219.70 98.94 218.50 96.79   Q 218.02 94.81 216.34 94.64   Q 215.05 94.51 214.06 95.72   Q 211.72 98.59 215.13 100.92   Z" fill="#083b7c"/>
<path d="   M 238.68 41.03   Q 237.99 51.30 232.40 59.91   Q 226.02 69.73 217.98 77.30   Q 216.60 78.60 217.78 80.08   Q 219.39 82.12 220.67 84.15   Q 222.67 87.32 223.38 88.35   Q 232.23 101.10 237.77 115.60   Q 239.01 118.85 239.03 121.06   Q 239.05 123.94 237.98 126.70   Q 236.87 129.56 235.94 132.48   Q 235.13 135.03 232.65 134.70   Q 230.89 134.46 230.84 134.46   Q 222.33 134.03 214.17 131.62   Q 207.82 129.73 203.00 125.21   L 203.29 124.75   Q 205.97 127.06 207.81 127.94   Q 219.84 133.67 232.22 133.51   Q 234.08 133.49 234.69 131.84   L 237.98 122.92   Q 238.66 121.09 237.88 118.86   Q 232.17 102.30 223.05 88.98   Q 219.74 84.15 215.75 78.31   A 0.91 0.90 53.0 0 1 215.91 77.11   Q 233.18 62.31 238.68 41.03   Z" fill="#f5fbf9" fill-opacity="0.988"/>
<path d="   M 67.52 71.82   L 63.47 71.65   Q 65.49 57.27 77.56 48.81   Q 82.69 45.22 88.48 44.29   Q 93.64 43.45 100.04 44.01   Q 112.60 45.11 122.92 55.71   Q 124.38 57.22 123.46 59.11   Q 122.85 60.37 120.19 59.56   Q 118.65 59.10 116.77 57.53   Q 114.44 55.57 113.67 55.09   Q 105.78 50.08 96.81 49.92   Q 88.00 49.77 80.69 54.69   Q 71.78 60.68 67.52 71.82   Z" fill="#f5c32b"/>
<path d="   M 156.54 85.75   L 151.44 89.65   Q 150.10 83.46 149.23 77.26   Q 148.56 72.47 147.10 70.09   Q 144.76 66.29 140.94 64.56   Q 132.98 60.97 126.94 67.69   Q 124.13 70.81 123.60 73.40   Q 126.35 76.71 125.00 80.46   L 109.50 79.96   Q 111.80 76.64 113.35 72.31   Q 116.84 72.50 118.36 69.44   Q 119.40 67.33 119.43 67.28   Q 124.14 59.85 132.49 58.20   Q 136.78 57.35 140.49 58.32   Q 144.79 59.44 147.56 62.69   Q 150.71 66.38 153.19 73.06   Q 154.28 76.01 156.54 85.75   Z" fill="#f8c01d"/>
<path d="   M 204.62 67.98   Q 204.29 72.03 202.55 75.37   A 0.88 0.86 12.2 0 1 201.81 75.83   Q 188.47 76.39 176.71 82.67   Q 169.85 86.18 163.44 90.47   Q 151.44 98.52 150.65 98.96   Q 133.45 108.41 113.75 107.75   Q 102.14 107.36 85.03 105.71   Q 75.33 104.77 70.95 105.46   Q 63.99 106.56 57.44 110.19   Q 42.04 118.72 32.94 133.50   Q 32.08 134.62 32.50 137.75   Q 34.34 151.38 22.94 160.19   Q 21.40 161.38 14.14 165.20   Q 12.83 156.28 14.06 150.56   Q 15.80 142.47 23.28 137.22   A 0.97 0.94 -18.1 0 0 23.69 136.44   Q 23.72 131.02 25.06 128.81   Q 30.16 120.42 37.27 113.93   Q 44.81 107.04 52.79 102.86   Q 67.01 95.42 84.25 97.25   Q 99.23 98.84 117.75 98.91   Q 136.26 98.99 151.44 89.65   L 156.54 85.75   Q 164.53 79.69 170.56 76.31   Q 185.87 67.74 204.62 67.98   Z" fill="#053d8b"/>
<path d="   M 204.62 67.98   Q 206.21 72.40 204.16 75.67   A 2.39 2.37 -76.1 0 1 202.32 76.79   Q 187.67 77.88 176.71 82.67   Q 188.47 76.39 201.81 75.83   A 0.88 0.86 12.2 0 0 202.55 75.37   Q 204.29 72.03 204.62 67.98   Z" fill="#e9f1eb" fill-opacity="0.976"/>
<path d="   M 63.47 71.65   L 67.52 71.82   L 113.35 72.31   Q 111.80 76.64 109.50 79.96   Q 76.13 80.91 41.38 80.22   A 0.87 0.87 3.3 0 1 40.52 79.36   L 40.44 72.44   A 0.51 0.49 -0.6 0 1 40.94 71.95   L 63.47 71.65   Z" fill="#04428c"/>
<path d="   M 125.00 80.46   Q 126.35 76.71 123.60 73.40   Q 132.99 71.93 142.07 72.65   A 0.72 0.71 84.8 0 1 142.70 73.18   Q 143.60 76.58 142.59 79.96   A 0.71 0.65 7.3 0 1 141.94 80.42   L 125.00 80.46   Z" fill="#083b7c"/>
<path d="   M 218.50 96.79   Q 217.52 95.91 216.26 95.78   A 1.08 1.06 -63.7 0 0 215.38 96.09   Q 213.37 98.14 215.13 100.92   Q 211.72 98.59 214.06 95.72   Q 215.05 94.51 216.34 94.64   Q 218.02 94.81 218.50 96.79   Z" fill="#e9f1eb" fill-opacity="0.976"/>
<path d="   M 192.92 102.94   Q 191.00 108.33 192.71 113.75   Q 192.30 113.75 192.00 114.04   Q 190.63 108.55 191.37 102.94   A 0.85 0.72 87.6 0 1 191.91 102.25   Q 192.84 101.99 192.92 102.94   Z" fill="#b7d2d4" fill-opacity="0.992"/>
<path d="   M 192.71 113.75   Q 195.58 122.12 200.44 126.81   Q 203.21 129.49 200.09 130.52   Q 198.55 131.03 198.45 131.08   Q 187.16 135.77 178.71 144.12   Q 171.38 151.37 167.82 160.67   Q 162.01 175.86 165.94 192.56   Q 168.51 203.51 169.46 208.25   L 168.79 208.25   Q 164.27 192.86 163.50 183.50   Q 161.58 160.13 177.63 143.63   Q 186.97 134.04 200.52 128.86   A 0.48 0.48 57.4 0 0 200.69 128.07   Q 194.54 121.85 192.00 114.04   Q 192.30 113.75 192.71 113.75   Z" fill="#f5fbf9" fill-opacity="0.988"/>
<path d="   M 199.00 120.29   L 203.29 124.75   L 203.00 125.21   Q 200.52 123.15 199.00 120.29   Z" fill="#5d98ab" fill-opacity="0.984"/>
<path d="   M 32.94 133.50   Q 35.32 144.47 30.69 153.19   Q 25.59 162.80 14.14 165.20   Q 21.40 161.38 22.94 160.19   Q 34.34 151.38 32.50 137.75   Q 32.08 134.62 32.94 133.50   Z" fill="#f5fbf9" fill-opacity="0.988"/>
<path d="   M 220.04 157.82   Q 225.85 164.59 224.90 173.49   Q 224.45 177.81 221.56 181.06   Q 212.09 191.75 198.54 185.34   Q 194.10 182.99 192.19 177.81   Q 188.99 169.15 192.59 162.39   Q 196.05 155.89 203.47 153.61   Q 212.12 150.97 220.04 157.82   Z" fill="#f4c339"/>
<path d="   M 220.04 157.82   Q 225.24 161.54 226.00 168.50   Q 226.90 176.78 221.98 182.46   Q 211.71 194.30 198.54 185.34   Q 212.09 191.75 221.56 181.06   Q 224.45 177.81 224.90 173.49   Q 225.85 164.59 220.04 157.82   Z" fill="#f2ebb8" fill-opacity="0.996"/>
<path d="   M 85.20 159.33   Q 63.50 167.25 47.64 183.90   Q 37.32 194.73 39.46 209.47   A 0.66 0.64 86.2 0 1 38.82 210.22   L 25.39 210.05   L 37.98 209.25   A 0.55 0.51 -5.6 0 0 38.49 208.67   Q 37.05 198.36 41.59 190.17   Q 44.74 184.49 53.39 176.67   Q 67.02 164.35 85.20 159.33   Z" fill="#f5fbf9" fill-opacity="0.988"/>
<path d="   M 147.74 187.66   Q 143.07 176.55 136.06 170.69   Q 129.86 165.50 118.01 160.40   Q 121.57 161.16 127.31 164.19   Q 142.59 172.23 147.74 187.66   Z" fill="#73a4bf" fill-opacity="0.984"/>
<path d="   M 123.34 166.13   L 123.00 174.77   A 0.73 0.72 15.8 0 1 121.92 175.36   Q 98.83 162.96 75.96 176.00   Q 74.42 172.92 73.97 169.28   A 1.18 1.17 71.3 0 1 74.53 168.13   Q 83.47 162.73 94.00 161.70   Q 109.20 160.22 123.34 166.13   Z" fill="#04428c"/>
<path d="   M 123.34 166.13   Q 124.71 171.05 123.72 175.77   A 1.07 1.07 20.7 0 1 122.14 176.48   Q 99.51 163.72 77.41 176.75   Q 76.88 177.07 76.52 176.99   Q 75.90 176.85 75.96 176.00   Q 98.83 162.96 121.92 175.36   A 0.73 0.72 15.8 0 0 123.00 174.77   L 123.34 166.13   Z" fill="#e9f1eb" fill-opacity="0.976"/>
<path d="   M 135.46 174.25   L 135.00 174.54   L 128.15 169.26   Q 132.52 170.73 135.46 174.25   Z" fill="#5d98ab" fill-opacity="0.984"/>
<path d="   M 128.15 169.26   L 135.00 174.54   Q 138.14 177.45 139.89 181.18   Q 141.25 184.10 141.32 189.06   Q 141.45 198.88 141.27 208.03   Q 141.23 210.08 139.19 209.87   Q 133.37 209.28 128.13 210.50   L 128.15 169.26   Z" fill="#04428c"/>
<path d="   M 69.65 169.83   Q 73.70 182.47 77.31 190.19   Q 83.24 202.83 85.63 209.10   Q 79.57 209.22 76.44 209.69   Q 72.77 210.23 71.29 207.25   Q 69.72 203.62 67.25 200.53   L 57.13 180.68   A 1.24 1.20 57.9 0 1 57.46 179.15   L 69.65 169.83   Z" fill="#053d8b"/>
<path d="   M 69.65 169.83   Q 75.08 182.12 80.48 194.37   Q 83.51 201.25 86.29 208.25   Q 86.35 209.12 85.63 209.10   Q 83.24 202.83 77.31 190.19   Q 73.70 182.47 69.65 169.83   Z" fill="#e9f1eb" fill-opacity="0.976"/>
<path d="   M 135.46 174.25   Q 139.04 177.27 140.89 181.35   Q 142.23 184.32 142.44 189.89   Q 142.81 199.34 142.75 208.92   A 1.80 1.71 -89.5 0 1 141.02 210.71   L 128.13 210.50   Q 133.37 209.28 139.19 209.87   Q 141.23 210.08 141.27 208.03   Q 141.45 198.88 141.32 189.06   Q 141.25 184.10 139.89 181.18   Q 138.14 177.45 135.00 174.54   L 135.46 174.25   Z" fill="#b7d2d4" fill-opacity="0.992"/>
<path d="   M 67.25 200.53   Q 69.72 203.62 71.29 207.25   Q 71.32 207.67 71.00 207.79   L 67.25 200.53   Z" fill="#5d98ab" fill-opacity="0.984"/>
<path d="   M 71.29 207.25   Q 72.77 210.23 76.44 209.69   Q 79.57 209.22 85.63 209.10   Q 86.35 209.12 86.29 208.25   Q 87.50 210.80 85.39 210.65   Q 83.69 210.53 83.59 210.53   Q 79.54 210.66 75.50 210.70   Q 72.25 210.73 71.00 207.79   Q 71.32 207.67 71.29 207.25   Z" fill="#b7d2d4" fill-opacity="0.992"/>
<path d="   M 168.79 208.25   L 169.46 208.25   Q 170.37 210.36 168.50 210.75   Q 161.52 212.19 155.10 208.87   Q 157.78 209.63 161.00 209.50   Q 162.52 209.44 168.20 209.44   A 0.55 0.54 2.2 0 0 168.75 208.94   L 168.79 208.25   Z" fill="#b7d2d4" fill-opacity="0.992"/>
<path d="   M 206.48 213.27   L 206.21 219.00   L 205.90 219.99   A 0.79 0.63 6.8 0 1 205.18 220.44   Q 118.68 220.19 32.19 220.39   Q 17.74 220.42 3.29 220.25   Q 2.67 216.90 3.22 213.55   A 0.60 0.59 5.7 0 1 3.82 213.07   Q 13.47 213.25 45.75 213.25   Q 126.14 213.24 206.48 213.27   Z   M 155.30 213.62   Q 157.82 213.87 160.88 213.72   Q 164.08 213.55 160.87 213.50   Q 158.04 213.46 155.31 213.55   Q 154.77 213.56 155.30 213.62   Z" fill="#023288"/>
<path d="   M 155.31 213.55   Q 158.04 213.46 160.87 213.50   Q 164.08 213.55 160.88 213.72   Q 157.82 213.87 155.30 213.62   Q 154.77 213.56 155.31 213.55   Z" fill="#083b7c"/>
<path d="   M 206.48 213.27   Q 207.55 217.15 206.70 221.61   Q 205.93 220.07 206.21 219.00   L 206.48 213.27   Z" fill="#b7d2d4" fill-opacity="0.992"/>
<path d="   M 206.21 219.00   Q 205.93 220.07 206.70 221.61   Q 128.15 221.18 3.94 221.31   Q 3.05 221.31 3.29 220.25   Q 17.74 220.42 32.19 220.39   Q 118.68 220.19 205.18 220.44   A 0.79 0.63 6.8 0 0 205.90 219.99   L 206.21 219.00   Z" fill="#5d98ab" fill-opacity="0.984"/>
</svg></svg></g>
            <g id="icon_name_and_slogan_gap">
            </g>
            <g class="name_and_slogan" id="name_and_slogan_id">
              <g class="name"><g id="nameDefaultGroup"><path d="M8.9 -18.2L8.9 -19.1L1.8 -19.1Q1.5 -21.4 1.4 -24.2Q1.2 -27 1.2 -29.8Q1.2 -32.7 1.4 -35.6Q1.5 -38.5 1.8 -41L1.8 -41L24.2 -41L24.2 -19.1L17.1 -19.1L17.1 -18.2L23.8 -18.2L23.8 -12L17.1 -12L17.1 -11.1L24.1 -11.1L24.1 -4.7L1.9 -4.7L1.9 -11.1L8.9 -11.1L8.9 -12L2.2 -12L2.2 -18.2L8.9 -18.2M30.8 -18L30.2 -22.2L43.2 -22.2L43.7 -18L48.2 -18L48.2 -11Q47.6 -6.2 46.5 -2Q45.5 2.2 44 6L44 6L31.8 6L34.8 -7.8L25.5 -7.8L25.5 -18L30.8 -18M45.2 -41Q46.7 -36.3 47.5 -31.9Q48.3 -27.5 48.6 -22.9L48.6 -22.9L39.3 -22.9L38.2 -31.8L36.1 -31.8L34.8 -22.9L25.3 -22.9L28.2 -41L45.2 -41M7.2 -3.9L6.8 6L1.5 6Q1.3 3.7 1.5 1Q1.6 -1.7 2.2 -3.9L2.2 -3.9L7.2 -3.9M24 -3.9L24.9 6L19.9 6L19 -3.9L24 -3.9M12.6 -3.9L13.2 6L8.2 6L7.8 -3.9L12.6 -3.9M18.1 -3.9L18.8 6L13.9 6L13.2 -3.9L18.1 -3.9M19 -33.2L19 -34.3L15 -34.3L15 -28.5L15.9 -33.2L19 -33.2M7 -33.1L10.1 -33.1L10.9 -29.2L10.9 -34.3L7 -34.3L7 -33.1M19 -25.8L19 -31L18.1 -26.7L15 -26.7L15 -25.8L19 -25.8M7 -30.6L7 -25.8L10.9 -25.8L10.9 -26.6L7.8 -26.6L7 -30.6M91.8 -41L92.7 -38.3L98.1 -38.3Q98.3 -37 98.4 -34.8Q98.6 -32.7 98.6 -30.1Q98.6 -27.5 98.6 -24.8Q98.6 -22 98.5 -19.3Q98.4 -16.6 98.3 -14.4Q98.2 -12.1 98.1 -10.7L98.1 -10.7L83.2 -10.7L82.3 6L71.8 6L73.2 -38.3L76.9 -38.3L75.9 -41L91.8 -41M60.7 -9.1L60.7 -11.2L51.5 -11.2Q51 -15.8 51 -20.8Q51 -25.8 51.5 -30.4L51.5 -30.4L60.4 -30.4L60.4 -20.8L70.8 -20.8L70.8 6L60.7 6L60.7 0.8L51.5 0.8L51.5 -9.1L60.7 -9.1M70.4 -41L70.4 -22L61.5 -22L61.5 -31.5L51.5 -31.5L51.5 -41L70.4 -41M83.8 -22.1L88.3 -22.1L88.3 -28.2L84.1 -28.2L83.8 -22.1z" style="" fill="#265281" id="namepathdata"/></g></g>
              <g class="slogan"><g id="sloganDefaultGroup"/></g>
            </g>
            <g class="border">
            </g>
          </g>
          
          <defs id="defs">
            <mask xmlns="http://www.w3.org/2000/svg" id="mask">
                <rect id="showAll" fill="white" x="-111.8" y="-67.75" width="100.5" height="100.5"/>
                <rect id="hideNameBg" fill="black" x="0" y="0" width="0" height="0" stroke-width="2" stroke="black"/>
                <rect id="hideSloganBg" fill="black" x="0" y="0" width="0" height="0" stroke-width="2" stroke="black"/>
            <path d="M8.9 -18.2L8.9 -19.1L1.8 -19.1Q1.5 -21.4 1.4 -24.2Q1.2 -27 1.2 -29.8Q1.2 -32.7 1.4 -35.6Q1.5 -38.5 1.8 -41L1.8 -41L24.2 -41L24.2 -19.1L17.1 -19.1L17.1 -18.2L23.8 -18.2L23.8 -12L17.1 -12L17.1 -11.1L24.1 -11.1L24.1 -4.7L1.9 -4.7L1.9 -11.1L8.9 -11.1L8.9 -12L2.2 -12L2.2 -18.2L8.9 -18.2M30.8 -18L30.2 -22.2L43.2 -22.2L43.7 -18L48.2 -18L48.2 -11Q47.6 -6.2 46.5 -2Q45.5 2.2 44 6L44 6L31.8 6L34.8 -7.8L25.5 -7.8L25.5 -18L30.8 -18M45.2 -41Q46.7 -36.3 47.5 -31.9Q48.3 -27.5 48.6 -22.9L48.6 -22.9L39.3 -22.9L38.2 -31.8L36.1 -31.8L34.8 -22.9L25.3 -22.9L28.2 -41L45.2 -41M7.2 -3.9L6.8 6L1.5 6Q1.3 3.7 1.5 1Q1.6 -1.7 2.2 -3.9L2.2 -3.9L7.2 -3.9M24 -3.9L24.9 6L19.9 6L19 -3.9L24 -3.9M12.6 -3.9L13.2 6L8.2 6L7.8 -3.9L12.6 -3.9M18.1 -3.9L18.8 6L13.9 6L13.2 -3.9L18.1 -3.9M19 -33.2L19 -34.3L15 -34.3L15 -28.5L15.9 -33.2L19 -33.2M7 -33.1L10.1 -33.1L10.9 -29.2L10.9 -34.3L7 -34.3L7 -33.1M19 -25.8L19 -31L18.1 -26.7L15 -26.7L15 -25.8L19 -25.8M7 -30.6L7 -25.8L10.9 -25.8L10.9 -26.6L7.8 -26.6L7 -30.6M91.8 -41L92.7 -38.3L98.1 -38.3Q98.3 -37 98.4 -34.8Q98.6 -32.7 98.6 -30.1Q98.6 -27.5 98.6 -24.8Q98.6 -22 98.5 -19.3Q98.4 -16.6 98.3 -14.4Q98.2 -12.1 98.1 -10.7L98.1 -10.7L83.2 -10.7L82.3 6L71.8 6L73.2 -38.3L76.9 -38.3L75.9 -41L91.8 -41M60.7 -9.1L60.7 -11.2L51.5 -11.2Q51 -15.8 51 -20.8Q51 -25.8 51.5 -30.4L51.5 -30.4L60.4 -30.4L60.4 -20.8L70.8 -20.8L70.8 6L60.7 6L60.7 0.8L51.5 0.8L51.5 -9.1L60.7 -9.1M70.4 -41L70.4 -22L61.5 -22L61.5 -31.5L51.5 -31.5L51.5 -41L70.4 -41M83.8 -22.1L88.3 -22.1L88.3 -28.2L84.1 -28.2L83.8 -22.1z" style="stroke-width: 0;" fill="#000000" id="masknamepathdata" stroke="#000000" paint-order="stroke" transform="matrix(1,0,0,1,0,0)"/></mask>
          </defs>
          
        </g>
        </svg>